<svg width="166" height="36" viewBox="0 0 166 36" fill="none" xmlns="http://www.w3.org/2000/svg">
<path d="M17.976 35V20.744H7.992V35H0.119995V1.73598H7.992V14.6H17.976V1.73598H25.848V35H17.976Z" fill="#141414"/>
<path d="M52.4887 1.73598L51.6727 7.35198H39.9607V15.32H50.1847V20.84H39.9607V29.336H52.4887V35H32.0887V1.73598H52.4887Z" fill="#141414"/>
<path d="M68.2984 22.28H65.2264V35H57.3544V1.73598H68.2504C72.7944 1.73598 76.2024 2.56798 78.4744 4.23198C80.7784 5.89598 81.9304 8.43998 81.9304 11.864C81.9304 14.008 81.4184 15.8 80.3944 17.24C79.3704 18.648 77.7544 19.848 75.5464 20.84L83.9944 35H75.1144L68.2984 22.28ZM65.2264 16.856H68.5384C70.2984 16.856 71.6104 16.456 72.4744 15.656C73.3704 14.856 73.8184 13.592 73.8184 11.864C73.8184 10.264 73.3384 9.09599 72.3784 8.35999C71.4504 7.62399 70.0104 7.25599 68.0584 7.25599H65.2264V16.856Z" fill="#141414"/>
<path d="M94.8514 1.73598V35H86.9794V1.73598H94.8514Z" fill="#141414"/>
<path d="M114.626 0.919983C116.706 0.919983 118.546 1.22398 120.146 1.83198C121.778 2.43998 123.314 3.35198 124.754 4.56798L121.01 9.03198C120.018 8.26398 119.042 7.68798 118.082 7.30398C117.122 6.91998 116.098 6.72798 115.01 6.72798C112.77 6.72798 110.994 7.67198 109.682 9.55998C108.402 11.448 107.762 14.36 107.762 18.296C107.762 22.168 108.402 25.048 109.682 26.936C110.994 28.792 112.802 29.72 115.106 29.72C116.322 29.72 117.426 29.496 118.418 29.048C119.41 28.568 120.482 27.896 121.634 27.032L125.138 31.544C123.89 32.792 122.37 33.816 120.578 34.616C118.818 35.416 116.866 35.816 114.722 35.816C111.65 35.816 108.978 35.144 106.706 33.8C104.434 32.456 102.658 30.472 101.378 27.848C100.13 25.192 99.5059 22.008 99.5059 18.296C99.5059 14.68 100.146 11.56 101.426 8.93598C102.738 6.31198 104.53 4.32798 106.802 2.98398C109.106 1.60798 111.714 0.919983 114.626 0.919983Z" fill="#141414"/>
<path d="M136.523 1.73598V35H128.651V1.73598H136.523ZM155.627 1.73598L145.019 16.664L156.491 35H147.371L136.763 17.24L147.323 1.73598H155.627Z" fill="#141414"/>
<path d="M161.666 27.128C162.85 27.128 163.858 27.56 164.69 28.424C165.554 29.256 165.986 30.264 165.986 31.448C165.986 32.664 165.554 33.704 164.69 34.568C163.858 35.4 162.85 35.816 161.666 35.816C160.45 35.816 159.41 35.4 158.546 34.568C157.714 33.704 157.298 32.664 157.298 31.448C157.298 30.264 157.714 29.256 158.546 28.424C159.41 27.56 160.45 27.128 161.666 27.128Z" fill="url(#paint0_linear_101_2)"/>
<defs>
<linearGradient id="paint0_linear_101_2" x1="83.0531" y1="0.919983" x2="83.0531" y2="35.816" gradientUnits="userSpaceOnUse">
<stop stop-color="#9BFF6B"/>
<stop offset="1" stop-color="#29C74B"/>
</linearGradient>
</defs>
</svg>
